<svg width="60" height="60" viewBox="0 0 60 60" fill="none" xmlns="http://www.w3.org/2000/svg">
<path d="M42.5 45C39.725 45 37.5 47.225 37.5 50C37.5 51.3261 38.0268 52.5979 38.9645 53.5355C39.9021 54.4732 41.1739 55 42.5 55C43.8261 55 45.0979 54.4732 46.0355 53.5355C46.9732 52.5979 47.5 51.3261 47.5 50C47.5 48.6739 46.9732 47.4021 46.0355 46.4645C45.0979 45.5268 43.8261 45 42.5 45ZM2.5 5V10H7.5L16.5 28.975L13.1 35.1C12.725 35.8 12.5 36.625 12.5 37.5C12.5 38.8261 13.0268 40.0979 13.9645 41.0355C14.9021 41.9732 16.1739 42.5 17.5 42.5H47.5V37.5H18.55C18.3842 37.5 18.2253 37.4342 18.1081 37.3169C17.9908 37.1997 17.925 37.0408 17.925 36.875C17.925 36.75 17.95 36.65 18 36.575L20.25 32.5H38.875C40.75 32.5 42.4 31.45 43.25 29.925L52.2 13.75C52.375 13.35 52.5 12.925 52.5 12.5C52.5 11.837 52.2366 11.2011 51.7678 10.7322C51.2989 10.2634 50.663 10 50 10H13.025L10.675 5M17.5 45C14.725 45 12.5 47.225 12.5 50C12.5 51.3261 13.0268 52.5979 13.9645 53.5355C14.9021 54.4732 16.1739 55 17.5 55C18.8261 55 20.0979 54.4732 21.0355 53.5355C21.9732 52.5979 22.5 51.3261 22.5 50C22.5 48.6739 21.9732 47.4021 21.0355 46.4645C20.0979 45.5268 18.8261 45 17.5 45Z" fill="black"/>
</svg>
