<svg width="24" height="24" viewBox="0 0 24 24" fill="none" xmlns="http://www.w3.org/2000/svg">
<path d="M2.49328 6.49327C2.82212 6.16442 3.24066 6 3.74888 6C4.2571 6 4.67564 6.16442 5.00449 6.49327L12 13.4888L18.9955 6.49327C19.3244 6.16442 19.7429 6 20.2511 6C20.7593 6 21.1779 6.16442 21.5067 6.49327C21.8356 6.82212 22 7.24066 22 7.74888C22 8.2571 21.8356 8.67564 21.5067 9.00448L13.2556 17.2556C13.0762 17.435 12.8819 17.5623 12.6726 17.6377C12.4634 17.7118 12.2392 17.7489 12 17.7489C11.7608 17.7489 11.5366 17.7118 11.3274 17.6377C11.1181 17.5623 10.9238 17.435 10.7444 17.2556L2.49328 9.00448C2.16443 8.67563 2 8.2571 2 7.74888C2 7.24066 2.16443 6.82212 2.49328 6.49327V6.49327Z" fill="black"/>
</svg>
