<svg width="60" height="60" viewBox="0 0 60 60" fill="none" xmlns="http://www.w3.org/2000/svg">
<path d="M42.5 45C43.8261 45 45.0979 45.5268 46.0355 46.4645C46.9732 47.4021 47.5 48.6739 47.5 50C47.5 51.3261 46.9732 52.5979 46.0355 53.5355C45.0979 54.4732 43.8261 55 42.5 55C41.1739 55 39.9021 54.4732 38.9645 53.5355C38.0268 52.5979 37.5 51.3261 37.5 50C37.5 47.225 39.725 45 42.5 45ZM2.5 5H10.675L13.025 10H50C50.663 10 51.2989 10.2634 51.7678 10.7322C52.2366 11.2011 52.5 11.837 52.5 12.5C52.5 12.925 52.375 13.35 52.2 13.75L43.25 29.925C42.4 31.45 40.75 32.5 38.875 32.5H20.25L18 36.575L17.925 36.875C17.925 37.0408 17.9908 37.1997 18.1081 37.3169C18.2253 37.4342 18.3842 37.5 18.55 37.5H47.5V42.5H17.5C16.1739 42.5 14.9021 41.9732 13.9645 41.0355C13.0268 40.0979 12.5 38.8261 12.5 37.5C12.5 36.625 12.725 35.8 13.1 35.1L16.5 28.975L7.5 10H2.5V5ZM17.5 45C18.8261 45 20.0979 45.5268 21.0355 46.4645C21.9732 47.4021 22.5 48.6739 22.5 50C22.5 51.3261 21.9732 52.5979 21.0355 53.5355C20.0979 54.4732 18.8261 55 17.5 55C16.1739 55 14.9021 54.4732 13.9645 53.5355C13.0268 52.5979 12.5 51.3261 12.5 50C12.5 47.225 14.725 45 17.5 45ZM40 27.5L46.95 15H15.35L21.25 27.5H40Z" fill="black"/>
</svg>
