<svg width="60" height="60" viewBox="0 0 60 60" fill="none" xmlns="http://www.w3.org/2000/svg">
<path d="M5.11111 48.3333C4.22963 48.3333 3.49126 48.0347 2.896 47.4373C2.29867 46.8421 2 46.1037 2 45.2222C2 44.3407 2.29867 43.6024 2.896 43.0071C3.49126 42.4098 4.22963 42.1111 5.11111 42.1111H54.8889C55.7704 42.1111 56.5087 42.4098 57.104 43.0071C57.7013 43.6024 58 44.3407 58 45.2222C58 46.1037 57.7013 46.8421 57.104 47.4373C56.5087 48.0347 55.7704 48.3333 54.8889 48.3333H5.11111ZM5.11111 32.7778C4.22963 32.7778 3.49126 32.4791 2.896 31.8818C2.29867 31.2865 2 30.5481 2 29.6667C2 28.7852 2.29867 28.0458 2.896 27.4484C3.49126 26.8532 4.22963 26.5556 5.11111 26.5556H54.8889C55.7704 26.5556 56.5087 26.8532 57.104 27.4484C57.7013 28.0458 58 28.7852 58 29.6667C58 30.5481 57.7013 31.2865 57.104 31.8818C56.5087 32.4791 55.7704 32.7778 54.8889 32.7778H5.11111ZM5.11111 17.2222C4.22963 17.2222 3.49126 16.9246 2.896 16.3293C2.29867 15.732 2 14.9926 2 14.1111C2 13.2296 2.29867 12.4902 2.896 11.8929C3.49126 11.2976 4.22963 11 5.11111 11H54.8889C55.7704 11 56.5087 11.2976 57.104 11.8929C57.7013 12.4902 58 13.2296 58 14.1111C58 14.9926 57.7013 15.732 57.104 16.3293C56.5087 16.9246 55.7704 17.2222 54.8889 17.2222H5.11111Z" fill="black"/>
</svg>
