<svg width="60" height="60" viewBox="0 0 60 60" fill="none" xmlns="http://www.w3.org/2000/svg">
  <path d="M40.3125 36.5625C40.3125 37.3084 40.0162 38.0238 39.4887 38.5512C38.9613 39.0787 38.2459 39.375 37.5 39.375H22.5C21.7541 39.375 21.0387 39.0787 20.5113 38.5512C19.9838 38.0238 19.6875 37.3084 19.6875 36.5625C19.6875 35.8166 19.9838 35.1012 20.5113 34.5738C21.0387 34.0463 21.7541 33.75 22.5 33.75H37.5C38.2459 33.75 38.9613 34.0463 39.4887 34.5738C40.0162 35.1012 40.3125 35.8166 40.3125 36.5625ZM37.5 24.375H22.5C21.7541 24.375 21.0387 24.6713 20.5113 25.1988C19.9838 25.7262 19.6875 26.4416 19.6875 27.1875C19.6875 27.9334 19.9838 28.6488 20.5113 29.1762C21.0387 29.7037 21.7541 30 22.5 30H37.5C38.2459 30 38.9613 29.7037 39.4887 29.1762C40.0162 28.6488 40.3125 27.9334 40.3125 27.1875C40.3125 26.4416 40.0162 25.7262 39.4887 25.1988C38.9613 24.6713 38.2459 24.375 37.5 24.375ZM51.5625 11.25V50.625C51.5563 51.8663 51.0605 53.055 50.1828 53.9328C49.305 54.8105 48.1163 55.3063 46.875 55.3125H13.125C11.8837 55.3063 10.695 54.8105 9.81724 53.9328C8.9395 53.055 8.44366 51.8663 8.4375 50.625V11.25C8.44366 10.0087 8.9395 8.81999 9.81724 7.94225C10.695 7.0645 11.8837 6.56866 13.125 6.5625H21.2109C22.3465 5.37565 23.7107 4.43108 25.2213 3.78577C26.7318 3.14046 28.3574 2.80777 30 2.80777C31.6426 2.80777 33.2682 3.14046 34.7787 3.78577C36.2893 4.43108 37.6535 5.37565 38.7891 6.5625H46.875C48.1163 6.56866 49.305 7.0645 50.1828 7.94225C51.0605 8.81999 51.5563 10.0087 51.5625 11.25V11.25ZM30 8.4375C28.4211 8.43332 26.894 9.00055 25.7007 10.0345C24.5074 11.0684 23.7285 12.4991 23.5078 14.0625H36.4922C36.2715 12.4991 35.4926 11.0684 34.2993 10.0345C33.106 9.00055 31.5789 8.43332 30 8.4375V8.4375ZM45.9375 12.1875H41.8594C42.0752 13.1095 42.1853 14.0531 42.1875 15V16.875C42.1875 17.6209 41.8912 18.3363 41.3637 18.8637C40.8363 19.3912 40.1209 19.6875 39.375 19.6875H20.625C19.8791 19.6875 19.1637 19.3912 18.6363 18.8637C18.1088 18.3363 17.8125 17.6209 17.8125 16.875V15C17.8147 14.0531 17.9248 13.1095 18.1406 12.1875H14.0625V49.6875H45.9375V12.1875Z" fill="black"/>
</svg>
