<svg width="60" height="60" viewBox="0 0 60 60" fill="none" xmlns="http://www.w3.org/2000/svg">
  <path d="M52.6629 57.1238L34.8193 39.2802C33.2262 40.5548 31.394 41.5638 29.3229 42.3073C27.2518 43.0507 25.0479 43.4225 22.7112 43.4225C16.9227 43.4225 12.0242 41.4183 8.01582 37.4098C4.00527 33.3993 2 28.4998 2 22.7112C2 16.9227 4.00527 12.0232 8.01582 8.01263C12.0242 4.00421 16.9227 2 22.7112 2C28.4998 2 33.3993 4.00421 37.4098 8.01263C41.4183 12.0232 43.4225 16.9227 43.4225 22.7112C43.4225 25.0479 43.0507 27.2518 42.3073 29.3229C41.5638 31.394 40.5548 33.2262 39.2802 34.8193L57.2034 52.7425C57.7876 53.3267 58.0797 54.0436 58.0797 54.8933C58.0797 55.743 57.761 56.4865 57.1238 57.1238C56.5396 57.7079 55.7961 58 54.8933 58C53.9905 58 53.247 57.7079 52.6629 57.1238V57.1238ZM22.7112 37.0498C26.6942 37.0498 30.0802 35.6563 32.8693 32.8693C35.6563 30.0802 37.0498 26.6942 37.0498 22.7112C37.0498 18.7283 35.6563 15.3423 32.8693 12.5532C30.0802 9.76618 26.6942 8.37269 22.7112 8.37269C18.7283 8.37269 15.3423 9.76618 12.5532 12.5532C9.76618 15.3423 8.37269 18.7283 8.37269 22.7112C8.37269 26.6942 9.76618 30.0802 12.5532 32.8693C15.3423 35.6563 18.7283 37.0498 22.7112 37.0498Z" fill="black"/>
</svg>
